#N canvas 306 161 582 300 10;
#X obj 43 161 print x1;
#X obj 121 161 print x2;
#X obj 199 161 print x3;
#X obj 282 161 print x4;
#X obj 43 108 route 23 54 1;
#X msg 43 45 234 345 456;
#X msg 168 45 23 34 45;
#X msg 274 45 54 43;
#X msg 345 45 1 foo bar;
#X msg 438 45 walk the dog;
#X connect 4 0 0 0;
#X connect 4 1 1 0;
#X connect 4 2 2 0;
#X connect 4 3 3 0;
#X connect 5 0 4 0;
#X connect 6 0 4 0;
#X connect 7 0 4 0;
#X connect 8 0 4 0;
#X connect 9 0 4 0;
