#N canvas 1126 113 672 520 10;
#X obj 402 62 r audio_on_off;
#X msg 402 118 \; pd dsp \$1 \;;
#X text 399 35 Turn DSP on and off;
#X obj 401 389 netreceive 3000;
#X obj 401 457 s audio_on_off;
#X obj 373 65 bng 15 250 50 0 empty empty empty 17 7 0 10 -262144 -1
-1;
#X obj 402 92 tgl 15 0 empty empty empty 17 7 0 10 -262144 -1 -1 0
1;
#X obj 73 339 mtof;
#X floatatom 73 311 5 0 0 0 - - -, f 5;
#X floatatom 24 380 5 0 0 0 - - -, f 5;
#X obj 73 379 osc~ 440;
#X obj 72 456 dac~, f 6;
#X obj 540 457 s note;
#X obj 73 244 r note;
#X obj 73 282 unpack;
#X text 398 328 Receive messages from Python and route them to the
proper receive objects in the patch;
#X obj 74 99 metro 1000;
#X obj 76 62 tgl 15 0 empty empty empty 17 7 0 10 -262144 -1 -1 0 1
;
#X msg 141 66 125;
#X msg 177 66 250;
#X msg 218 66 500;
#X obj 40 116 bng 15 250 50 0 empty empty empty 17 7 0 10 -262144 -1
-1;
#X obj 401 422 route 0 1 2, f 16;
#X obj 603 455 s volume;
#X connect 0 0 6 0;
#X connect 3 0 22 0;
#X connect 5 0 6 0;
#X connect 6 0 1 0;
#X connect 7 0 9 0;
#X connect 7 0 10 0;
#X connect 8 0 7 0;
#X connect 10 0 11 0;
#X connect 10 0 11 1;
#X connect 13 0 14 0;
#X connect 14 0 8 0;
#X connect 16 0 21 0;
#X connect 17 0 16 0;
#X connect 18 0 16 1;
#X connect 19 0 16 1;
#X connect 20 0 16 1;
#X connect 22 0 4 0;
#X connect 22 1 12 0;
#X connect 22 2 23 0;
